<?xml version="1.0" encoding="UTF-8" standalone="no"?>
<!DOCTYPE svg PUBLIC "-//W3C//DTD SVG 1.1//EN" "http://www.w3.org/Graphics/SVG/1.1/DTD/svg11.dtd">
<svg width="100%" height="100%" viewBox="0 0 150 150" version="1.1" xmlns="http://www.w3.org/2000/svg" xmlns:xlink="http://www.w3.org/1999/xlink" xml:space="preserve" xmlns:serif="http://www.serif.com/" style="fill-rule:evenodd;clip-rule:evenodd;stroke-miterlimit:2.613;">
    <g transform="matrix(0.334725,0,0,0.334725,71.6632,13.487)">
        <path d="M0,-9.242C-3.738,-23.191 -0.186,-36.096 9.969,-36.096C20.123,-36.096 23.676,-23.191 19.937,-9.242L15.537,7.194C14.949,9.383 14.789,11.709 15.236,14.008L16.885,22.463L22.992,23.002L22.855,26.854C18.605,26.508 14.309,26.324 9.969,26.324C5.629,26.324 1.334,26.508 -2.916,26.854L-3.055,23.002L3.055,22.463L4.701,14.008C5.148,11.709 4.988,9.383 4.4,7.194L0,-9.242Z" style="fill:none;stroke:white;stroke-width:3px;"/>
    </g>
    <g transform="matrix(0.334725,0,0,0.334725,72.923,62.9024)">
        <path d="M0,-94.569C-6.451,-81.16 -5.057,-66.587 0.59,-51.385C-5.398,-51.355 -5.234,-40.637 0.59,-40.606C-4.66,-27.022 -4.885,-13.436 -0.201,0.15C1.879,-0.219 4.02,-0.413 6.205,-0.413C8.391,-0.413 10.531,-0.219 12.611,0.15C17.297,-13.436 17.072,-27.022 11.82,-40.606C17.645,-40.637 17.807,-51.355 11.82,-51.385C17.467,-66.587 18.863,-81.16 12.412,-94.569C10.354,-94.665 8.285,-94.719 6.205,-94.719C4.123,-94.719 2.057,-94.665 0,-94.569Z" style="fill:none;stroke:white;stroke-width:3px;"/>
    </g>
    <g transform="matrix(0.334725,0,0,0.334725,71.6632,136.423)">
        <path d="M0,9.51C-3.738,23.46 -0.186,36.365 9.969,36.365C20.123,36.365 23.676,23.46 19.937,9.51L15.537,-6.924C14.949,-9.114 14.789,-11.439 15.236,-13.74L16.885,-22.194L22.992,-22.733L22.846,-26.855C18.598,-26.511 14.305,-26.328 9.969,-26.328C5.633,-26.328 1.34,-26.511 -2.906,-26.855L-3.055,-22.733L3.055,-22.194L4.701,-13.74C5.148,-11.439 4.988,-9.114 4.4,-6.924L0,9.51Z" style="fill:none;stroke:white;stroke-width:3px;"/>
    </g>
    <g transform="matrix(0.334725,0,0,0.334725,72.8785,87.0135)">
        <path d="M0,94.543C-6.299,81.209 -4.883,66.733 0.723,51.636C-5.266,51.605 -5.102,40.887 0.723,40.857C-4.561,27.186 -4.756,13.516 0.021,-0.155C2.074,0.203 4.184,0.392 6.338,0.392C8.492,0.392 10.604,0.203 12.656,-0.155C17.432,13.516 17.236,27.186 11.953,40.857C17.777,40.887 17.939,51.605 11.953,51.636C17.561,66.733 18.977,81.209 12.676,94.543C10.576,94.644 8.463,94.698 6.338,94.698C4.213,94.698 2.102,94.644 0,94.543Z" style="fill:none;stroke:white;stroke-width:3px;"/>
    </g>
    <g transform="matrix(0.334725,0,0,0.334725,75,78.7871)">
        <path d="M0,-22.9C6.322,-22.9 11.451,-17.773 11.451,-11.451C11.451,-5.127 6.322,-0.002 0,-0.002C-6.322,-0.002 -11.449,-5.127 -11.449,-11.451C-11.449,-17.773 -6.322,-22.9 0,-22.9ZM0,-39.921C15.725,-39.921 28.471,-27.174 28.471,-11.451C28.471,4.274 15.725,17.021 0,17.021C-15.725,17.021 -28.471,4.274 -28.471,-11.451C-28.471,-27.174 -15.725,-39.921 0,-39.921Z" style="fill:none;stroke:white;stroke-width:3px;"/>
    </g>
    <g transform="matrix(0.334725,0,0,0.334725,75,85.8218)">
        <path d="M0,-64.933C17.93,-64.933 32.467,-50.398 32.467,-32.467C32.467,-14.536 17.93,0 0,0C-17.93,0 -32.465,-14.536 -32.465,-32.467C-32.465,-50.398 -17.93,-64.933 0,-64.933ZM0,-68.885C20.113,-68.885 36.418,-52.58 36.418,-32.467C36.418,-12.354 20.113,3.952 0,3.952C-20.113,3.952 -36.418,-12.354 -36.418,-32.467C-36.418,-52.58 -20.113,-68.885 0,-68.885Z" style="fill:none;stroke:white;stroke-width:3px;"/>
    </g>
    <g transform="matrix(0.334725,0,0,0.334725,75,123.551)">
        <path d="M0,-290.369C80.184,-290.369 145.186,-225.368 145.186,-145.184C145.186,-65.001 80.184,0.001 0,0.001C-80.184,0.001 -145.186,-65.001 -145.186,-145.184C-145.186,-225.368 -80.184,-290.369 0,-290.369ZM0,-302.495C86.881,-302.495 157.311,-232.063 157.311,-145.184C157.311,-58.304 86.881,12.126 0,12.126C-86.881,12.126 -157.311,-58.304 -157.311,-145.184C-157.311,-232.063 -86.881,-302.495 0,-302.495Z" style="fill:none;stroke:white;stroke-width:3px;"/>
    </g>
    <g transform="matrix(0.334725,0,0,0.334725,75,118.711)">
        <path d="M0,-261.449C72.197,-261.449 130.725,-202.922 130.725,-130.724C130.725,-58.527 72.197,0.001 0,0.001C-72.197,0.001 -130.725,-58.527 -130.725,-130.724C-130.725,-202.922 -72.197,-261.449 0,-261.449ZM0,-268.994C76.365,-268.994 138.27,-207.088 138.27,-130.724C138.27,-54.36 76.365,7.545 0,7.545C-76.363,7.545 -138.27,-54.36 -138.27,-130.724C-138.27,-207.088 -76.363,-268.994 0,-268.994Z" style="fill:none;stroke:white;stroke-width:3px;"/>
    </g>
    <g transform="matrix(0.334725,0,0,0.334725,73.1205,45.7024)">
        <path d="M0,0L11.23,0" style="fill:none;stroke:white;stroke-width:3px;"/>
    </g>
    <g transform="matrix(0.334725,0,0,0.334725,73.1205,49.3105)">
        <path d="M0,0L11.23,0" style="fill:none;stroke:white;stroke-width:3px;"/>
    </g>
    <g transform="matrix(0.334725,0,0,0.334725,73.1205,100.69)">
        <path d="M0,0L11.23,0" style="fill:none;stroke:white;stroke-width:3px;"/>
    </g>
    <g transform="matrix(0.334725,0,0,0.334725,73.1205,104.297)">
        <path d="M0,0L11.23,0" style="fill:none;stroke:white;stroke-width:3px;"/>
    </g>
    <g transform="matrix(0.334725,0,0,0.334725,72.6857,128.994)">
        <path d="M0,0L13.83,0" style="fill:none;stroke:white;stroke-width:3px;"/>
    </g>
    <g transform="matrix(0.334725,0,0,0.334725,72.6857,21.006)">
        <path d="M0,0L13.83,0" style="fill:none;stroke:white;stroke-width:3px;"/>
    </g>
    <g transform="matrix(0.334725,0,0,0.334725,139.607,78.3373)">
        <path d="M0,-19.941C13.949,-23.676 26.854,-20.125 26.854,-9.97C26.854,0.182 13.949,3.735 0,-0.002L-16.436,-4.404C-18.625,-4.99 -20.949,-5.15 -23.25,-4.703L-31.705,-3.054L-32.244,3.053L-36.096,2.916C-35.75,-1.335 -35.566,-5.631 -35.566,-9.97C-35.566,-14.31 -35.75,-18.607 -36.096,-22.857L-32.244,-22.995L-31.705,-16.886L-23.25,-15.239C-20.949,-14.791 -18.625,-14.953 -16.436,-15.539L0,-19.941Z" style="fill:none;stroke:white;stroke-width:3px;"/>
    </g>
    <g transform="matrix(0.334725,0,0,0.334725,118.752,77.0773)">
        <path d="M0,-12.413C-13.41,-18.864 -27.982,-17.468 -43.184,-11.821C-43.215,-17.809 -53.932,-17.645 -53.963,-11.821C-67.547,-17.073 -81.133,-17.297 -94.719,-12.612C-94.35,-10.533 -94.156,-8.392 -94.156,-6.206C-94.156,-4.02 -94.35,-1.88 -94.719,0.2C-81.133,4.884 -67.547,4.66 -53.963,-0.591C-53.932,5.232 -43.215,5.397 -43.184,-0.591C-27.982,5.054 -13.41,6.451 0,-0.001C0.096,-2.058 0.15,-4.126 0.15,-6.206C0.15,-8.287 0.096,-10.355 0,-12.413Z" style="fill:none;stroke:white;stroke-width:3px;"/>
    </g>
    <g transform="matrix(0.334725,0,0,0.334725,10.3935,78.3373)">
        <path d="M0,-19.941C-13.949,-23.676 -26.854,-20.125 -26.854,-9.97C-26.854,0.182 -13.949,3.735 0,-0.002L16.436,-4.404C18.625,-4.99 20.951,-5.15 23.25,-4.703L31.707,-3.054L32.244,3.053L36.367,2.905C36.021,-1.341 35.84,-5.634 35.84,-9.97C35.84,-14.307 36.021,-18.599 36.367,-22.847L32.244,-22.995L31.707,-16.886L23.25,-15.239C20.951,-14.791 18.625,-14.953 16.436,-15.539L0,-19.941Z" style="fill:none;stroke:white;stroke-width:3px;"/>
    </g>
    <g transform="matrix(0.334725,0,0,0.334725,31.3406,77.1209)">
        <path d="M0,-12.674C13.332,-18.975 27.811,-17.559 42.908,-11.951C42.938,-17.94 53.654,-17.776 53.686,-11.951C67.355,-17.236 81.027,-17.43 94.699,-12.654C94.34,-10.602 94.152,-8.491 94.152,-6.336C94.152,-4.182 94.34,-2.071 94.699,-0.02C81.027,4.756 67.355,4.562 53.686,-0.721C53.654,5.101 42.938,5.266 42.908,-0.721C27.811,4.887 13.332,6.301 0,0.001C-0.102,-2.099 -0.156,-4.211 -0.156,-6.336C-0.156,-8.462 -0.102,-10.574 0,-12.674Z" style="fill:none;stroke:white;stroke-width:3px;"/>
    </g>
    <g transform="matrix(0,0.334725,0.334725,0,106.177,74.9999)">
        <path d="M-5.615,-5.615L5.615,-5.615" style="fill:none;stroke:white;stroke-width:3px;"/>
    </g>
    <g transform="matrix(0,0.334725,0.334725,0,102.569,74.9999)">
        <path d="M-5.615,-5.615L5.615,-5.615" style="fill:none;stroke:white;stroke-width:3px;"/>
    </g>
    <g transform="matrix(0,0.334725,0.334725,0,51.19,74.9999)">
        <path d="M-5.615,-5.615L5.615,-5.615" style="fill:none;stroke:white;stroke-width:3px;"/>
    </g>
    <g transform="matrix(0,0.334725,0.334725,0,47.5825,74.9999)">
        <path d="M-5.615,-5.615L5.615,-5.615" style="fill:none;stroke:white;stroke-width:3px;"/>
    </g>
    <g transform="matrix(0,0.334725,0.334725,0,23.3216,75)">
        <path d="M-6.916,-6.916L6.916,-6.916" style="fill:none;stroke:white;stroke-width:3px;"/>
    </g>
    <g transform="matrix(0,0.334725,0.334725,0,131.309,75)">
        <path d="M-6.916,-6.916L6.916,-6.916" style="fill:none;stroke:white;stroke-width:3px;"/>
    </g>
    <g transform="matrix(0.334725,0,0,0.334725,118.324,34.5102)">
        <path d="M0,-22.567C7.221,-35.073 18.859,-41.686 26.039,-34.506C33.219,-27.327 26.604,-15.689 14.1,-8.467L-0.635,0.041C-2.598,1.175 -4.355,2.705 -5.666,4.649L-10.479,11.791L-6.541,16.492L-9.361,19.119C-12.123,15.869 -15.031,12.701 -18.102,9.632C-21.168,6.564 -24.336,3.657 -27.586,0.894L-24.959,-1.926L-20.26,2.011L-13.117,-2.801C-11.174,-4.111 -9.643,-5.869 -8.51,-7.833L0,-22.567Z" style="fill:none;stroke:white;stroke-width:3px;"/>
    </g>
    <g transform="matrix(0.334725,0,0,0.334725,104.469,67.9974)">
        <path d="M0,-75.895C-14.045,-70.974 -23.361,-59.683 -30.119,-44.941C-34.373,-49.154 -41.836,-41.458 -37.74,-37.32C-51.061,-31.427 -60.824,-21.98 -67.117,-9.06C-65.387,-7.851 -63.736,-6.474 -62.191,-4.928C-60.645,-3.382 -59.268,-1.732 -58.059,0C-45.139,-6.294 -35.691,-16.059 -29.799,-29.378C-25.66,-25.282 -17.967,-32.746 -22.178,-36.999C-7.436,-43.757 3.855,-53.074 8.775,-67.119C7.389,-68.64 5.965,-70.142 4.494,-71.613C3.021,-73.083 1.521,-74.508 0,-75.895Z" style="fill:none;stroke:white;stroke-width:3px;"/>
    </g>
    <g transform="matrix(0.334725,0,0,0.334725,26.9571,120.147)">
        <path d="M0,-5.446C-12.508,1.775 -19.119,13.412 -11.939,20.593C-4.76,27.771 6.877,21.158 14.098,8.653L22.605,-6.082C23.74,-8.045 25.271,-9.802 27.215,-11.113L34.357,-15.925L39.057,-11.988L41.869,-15.008C38.621,-17.766 35.455,-20.674 32.391,-23.739C29.324,-26.804 26.42,-29.97 23.658,-33.217L20.639,-30.405L24.578,-25.706L19.764,-18.563C18.453,-16.62 16.697,-15.09 14.732,-13.956L0,-5.446Z" style="fill:none;stroke:white;stroke-width:3px;"/>
    </g>
    <g transform="matrix(0.334725,0,0,0.334725,42.6284,84.9635)">
        <path d="M0,57.982C4.973,44.1 16.211,34.865 30.852,28.154C26.637,23.898 34.334,16.436 38.471,20.532C44.402,7.128 53.932,-2.674 66.975,-8.965C68.172,-7.26 69.533,-5.635 71.057,-4.111C72.58,-2.587 74.205,-1.227 75.91,-0.031C69.621,13.013 59.816,22.543 46.412,28.474C50.508,32.613 43.047,40.307 38.791,36.094C32.08,50.736 22.844,61.972 8.961,66.947C7.406,65.531 5.873,64.077 4.371,62.574C2.867,61.071 1.412,59.539 0,57.982Z" style="fill:none;stroke:white;stroke-width:3px;"/>
    </g>
    <g transform="matrix(0.236686,0.236686,0.236686,-0.236686,95.7163,52.4041)">
        <path d="M-1.645,-3.971L9.586,-3.971" style="fill:none;stroke:white;stroke-width:3px;"/>
    </g>
    <g transform="matrix(0.236686,0.236686,0.236686,-0.236686,93.1653,54.955)">
        <path d="M-1.645,-3.971L9.586,-3.971" style="fill:none;stroke:white;stroke-width:3px;"/>
    </g>
    <g transform="matrix(0.236672,0.236701,0.236701,-0.236672,56.8348,91.2855)">
        <path d="M-1.645,-3.971L9.586,-3.971" style="fill:none;stroke:white;stroke-width:3px;"/>
    </g>
    <g transform="matrix(0.236672,0.236701,0.236701,-0.236672,54.2841,93.8369)">
        <path d="M-1.645,-3.97L9.584,-3.97" style="fill:none;stroke:white;stroke-width:3px;"/>
    </g>
    <g transform="matrix(0.236674,0.236699,0.236699,-0.236674,36.8209,110.865)">
        <path d="M-2.026,-4.89L11.805,-4.89" style="fill:none;stroke:white;stroke-width:3px;"/>
    </g>
    <g transform="matrix(0.236699,0.236674,0.236674,-0.236699,113.179,34.5053)">
        <path d="M-2.025,-4.89L11.806,-4.89" style="fill:none;stroke:white;stroke-width:3px;"/>
    </g>
    <g transform="matrix(0.334725,0,0,0.334725,123.044,120.209)">
        <path d="M0,-5.631C12.506,1.59 19.119,13.227 11.939,20.408C4.76,27.586 -6.879,20.973 -14.1,8.468L-22.609,-6.267C-23.742,-8.23 -25.273,-9.987 -27.217,-11.298L-34.359,-16.11L-39.059,-12.173L-41.686,-14.993C-38.436,-17.756 -35.268,-20.663 -32.201,-23.733C-29.131,-26.801 -26.223,-29.968 -23.461,-33.217L-20.641,-30.59L-24.578,-25.891L-19.766,-18.748C-18.455,-16.805 -16.697,-15.275 -14.734,-14.141L0,-5.631Z" style="fill:none;stroke:white;stroke-width:3px;"/>
    </g>
    <g transform="matrix(0.334725,0,0,0.334725,107.406,84.94)">
        <path d="M0,58.342C-4.92,44.297 -16.211,34.981 -30.953,28.224C-26.742,23.968 -34.436,16.506 -38.574,20.602C-44.467,7.282 -53.914,-2.481 -66.834,-8.776C-68.043,-7.044 -69.42,-5.394 -70.967,-3.848C-72.512,-2.304 -74.162,-0.927 -75.893,0.284C-69.6,13.202 -59.836,22.65 -46.516,28.544C-50.611,32.683 -43.148,40.377 -38.895,36.164C-32.137,50.906 -22.82,62.198 -8.775,67.118C-7.254,65.732 -5.754,64.308 -4.281,62.836C-2.811,61.364 -1.387,59.864 0,58.342Z" style="fill:none;stroke:white;stroke-width:3px;"/>
    </g>
    <g transform="matrix(0.334725,0,0,0.334725,31.676,34.5715)">
        <path d="M0,-22.75C-7.221,-35.256 -18.857,-41.869 -26.037,-34.689C-33.217,-27.51 -26.604,-15.872 -14.098,-8.65L0.635,-0.142C2.6,0.992 4.355,2.522 5.666,4.466L10.48,11.608L6.541,16.309L9.561,19.119C12.322,15.873 15.227,12.708 18.293,9.642C21.357,6.576 24.523,3.67 27.771,0.91L24.959,-2.109L20.26,1.828L13.117,-2.984C11.174,-4.294 9.643,-6.052 8.508,-8.016L0,-22.75Z" style="fill:none;stroke:white;stroke-width:3px;"/>
    </g>
    <g transform="matrix(0.334725,0,0,0.334725,45.6279,68.0371)">
        <path d="M0,-75.911C13.883,-70.938 23.119,-59.7 29.83,-45.059C34.086,-49.272 41.547,-41.577 37.451,-37.438C50.855,-31.508 60.66,-21.979 66.949,-8.934C65.244,-7.737 63.619,-6.378 62.096,-4.854C60.572,-3.331 59.211,-1.704 58.014,0C44.971,-6.29 35.441,-16.094 29.51,-29.497C25.373,-25.4 17.676,-32.864 21.891,-37.118C7.25,-43.829 -3.988,-53.064 -8.961,-66.948C-7.549,-68.504 -6.094,-70.037 -4.59,-71.539C-3.088,-73.041 -1.555,-74.497 0,-75.911Z" style="fill:none;stroke:white;stroke-width:3px;"/>
    </g>
    <g transform="matrix(-0.236701,0.236672,0.236672,0.236701,95.7162,97.5955)">
        <path d="M-9.585,-3.97L1.644,-3.97" style="fill:none;stroke:white;stroke-width:3px;"/>
    </g>
    <g transform="matrix(-0.236672,0.236701,0.236701,0.236672,93.1657,95.0448)">
        <path d="M-9.586,-3.971L1.645,-3.971" style="fill:none;stroke:white;stroke-width:3px;"/>
    </g>
    <g transform="matrix(-0.236686,0.236686,0.236686,0.236686,56.8347,58.7141)">
        <path d="M-9.586,-3.971L1.645,-3.971" style="fill:none;stroke:white;stroke-width:3px;"/>
    </g>
    <g transform="matrix(-0.236657,0.236716,0.236716,0.236657,54.2845,56.1629)">
        <path d="M-9.584,-3.971L1.645,-3.971" style="fill:none;stroke:white;stroke-width:3px;"/>
    </g>
    <g transform="matrix(-0.236674,0.236699,0.236699,0.236674,36.821,39.1349)">
        <path d="M-11.805,-4.89L2.026,-4.89" style="fill:none;stroke:white;stroke-width:3px;"/>
    </g>
    <g transform="matrix(-0.236699,0.236674,0.236674,0.236699,113.179,115.494)">
        <path d="M-11.806,-4.89L2.025,-4.89" style="fill:none;stroke:white;stroke-width:3px;"/>
    </g>
</svg>
